# xmcd CD database file
#
# Track frame offsets:
#	150
#	18612
#	37028
#	58055
#	91927
#	123815
#	150549
#	175459
#	195566
#	224190
#	238909
#	264506
#	283797
#	296991
#
# Disc length: 4361 seconds
#
# Revision: 1
# Processed by: cddbd v1.5.2PL0 Copyright (c) Steve Scherf et al.
# Submitted via: CDex 1.70beta2
#
DISCID=dd11070e
DTITLE=SELECTION FIP 01 - Unknown CD for MusicBrainz and FreeDB
DYEAR=2011
DGENRE=Jazz
TTITLE0=Stay By You- Hjaltalin
TTITLE1=What Goes Through Your Eyes - Push Up
TTITLE2=Il Est Temps - Renaud Papillon Paravel
TTITLE3=Bailador - Michel Portal
TTITLE4=African Woman - Ebo Taylor
TTITLE5=Batkallim - Natacha Atlas
TTITLE6=Lay Down In The Tall Grass - TimberTimbre
TTITLE7=Paperboys - Rebekka Karijord
TTITLE8=Froots Pins - Pierre HH
TTITLE9=Muthu Kumar - Sushila Raman
TTITLE10=Come Undone - Isolbel Campbel and Mark Lanegan
TTITLE11=Another Love Song - Prince of Assyria
TTITLE12=Sequoia - Presque Oui
TTITLE13=Mirror - Charles LLoyd Quartet
EXTD=YEAR: 2011
EXTT0=
EXTT1=
EXTT2=
EXTT3=
EXTT4=
EXTT5=
EXTT6=
EXTT7=
EXTT8=
EXTT9=
EXTT10=
EXTT11=
EXTT12=
EXTT13=
PLAYORDER=
